<svg width="24" height="24" viewBox="0 0 24 24" fill="none" xmlns="http://www.w3.org/2000/svg">
<path d="M10 7L15 12L10 17L10 7Z" fill="#F5F5F5"/>
<path fill-rule="evenodd" clip-rule="evenodd" d="M19.2 1.8H4.8C3.14315 1.8 1.8 3.14315 1.8 4.8V19.2C1.8 20.8569 3.14315 22.2 4.8 22.2H19.2C20.8569 22.2 22.2 20.8569 22.2 19.2V4.8C22.2 3.14315 20.8569 1.8 19.2 1.8ZM4.8 0C2.14903 0 0 2.14903 0 4.8V19.2C0 21.851 2.14903 24 4.8 24H19.2C21.851 24 24 21.851 24 19.2V4.8C24 2.14903 21.851 0 19.2 0H4.8Z" fill="#F5F5F5"/>
</svg>
