<svg width="211" height="40" viewBox="0 0 211 40" fill="none" xmlns="http://www.w3.org/2000/svg">
<path fill-rule="evenodd" clip-rule="evenodd" d="M20 40C8.95431 40 2.45765e-06 31.0457 2.94047e-06 20C3.42329e-06 8.9543 8.95431 -1.35705e-06 20 -8.74228e-07C31.0457 -3.91405e-07 40 8.9543 40 20C40 31.0457 31.0457 40 20 40ZM10.7692 32.3077C10.7692 34.4319 12.4912 36.1538 14.6154 36.1538C16.7396 36.1538 18.4615 34.4319 18.4615 32.3077C18.4615 30.1835 16.7396 28.4615 14.6154 28.4615C12.4912 28.4615 10.7692 30.1835 10.7692 32.3077ZM14.6154 11.5385C12.4912 11.5385 10.7692 9.81648 10.7692 7.69231C10.7692 5.56813 12.4912 3.84615 14.6154 3.84615C16.7396 3.84615 18.4615 5.56814 18.4615 7.69231C18.4615 9.81648 16.7396 11.5385 14.6154 11.5385ZM6.92308 15.3846C9.04725 15.3846 10.7692 17.1066 10.7692 19.2308C10.7692 21.3549 9.04725 23.0769 6.92308 23.0769C4.7989 23.0769 3.07692 21.3549 3.07692 19.2308C3.07692 17.1066 4.7989 15.3846 6.92308 15.3846ZM27.9008 35.6642C26.1275 36.4953 24.227 36.9231 22.3077 36.9231L22.3077 20.3846L22.3077 3.84615C24.227 3.84615 26.1275 4.27393 27.9008 5.10507C29.674 5.9362 31.2852 7.15442 32.6423 8.69016C33.9995 10.2259 35.0761 12.0491 35.8105 14.0556C36.545 16.0622 36.9231 18.2128 36.9231 20.3846C36.9231 22.5565 36.545 24.7071 35.8105 26.7136C35.0761 28.7201 33.9995 30.5433 32.6423 32.0791C31.2852 33.6148 29.674 34.833 27.9008 35.6642Z" fill="url(#paint0_linear_101_967)"/>
<path d="M55.3846 30.4176V10.315H69.6264V12.718H58.1685V19.1648H68.6008V21.5385H58.1685V30.4176H55.3846Z" fill="white"/>
<path d="M73.6435 12.1026V9.23077H76.2222V12.1026H73.6435ZM73.6435 30.4176V15.0037H76.2222V30.4176H73.6435Z" fill="white"/>
<path d="M81.0394 30.4176V15.0037H83.12L83.3544 17.3187H83.5596C83.9698 16.6935 84.4289 16.1856 84.9369 15.7949C85.4643 15.4042 86.0406 15.1209 86.6658 14.9451C87.3105 14.7497 87.9942 14.652 88.7171 14.652C89.6939 14.652 90.5437 14.8181 91.2665 15.1502C92.0089 15.4823 92.5852 16.0195 92.9955 16.7619C93.4253 17.5043 93.6402 18.5104 93.6402 19.7802V30.4176H91.0614V20.1319C91.0614 19.4872 90.9735 18.9597 90.7977 18.5495C90.6414 18.1392 90.4167 17.8169 90.1237 17.5824C89.8502 17.348 89.5083 17.1819 89.098 17.0843C88.7073 16.9866 88.2677 16.9377 87.7794 16.9377C87.0565 16.9377 86.3728 17.1136 85.7281 17.4652C85.0834 17.8169 84.5657 18.3248 84.175 18.989C83.8038 19.6532 83.6182 20.4444 83.6182 21.3626V30.4176H81.0394Z" fill="white"/>
<path d="M103.611 30.7692C102.341 30.7692 101.247 30.486 100.329 29.9194C99.4303 29.3529 98.727 28.4738 98.219 27.2821C97.7306 26.0708 97.4864 24.5079 97.4864 22.5934C97.4864 20.7766 97.7404 19.2821 98.2483 18.1099C98.7563 16.9377 99.4596 16.0684 100.358 15.5018C101.257 14.9353 102.302 14.652 103.494 14.652C104.178 14.652 104.812 14.7302 105.399 14.8865C105.985 15.0427 106.502 15.2869 106.952 15.6191C107.42 15.9512 107.831 16.3907 108.182 16.9377H108.358V9.23077H110.937V30.4176H108.856L108.622 28.2198H108.417C107.889 29.0794 107.206 29.7241 106.366 30.1539C105.526 30.5641 104.607 30.7692 103.611 30.7692ZM104.226 28.5128C105.203 28.5128 105.994 28.2979 106.6 27.8681C107.206 27.4383 107.645 26.8132 107.919 25.9927C108.212 25.1722 108.358 24.1563 108.358 22.9451V22.4762C108.358 21.4213 108.251 20.5324 108.036 19.8095C107.821 19.0867 107.528 18.5104 107.157 18.0806C106.786 17.6508 106.356 17.348 105.867 17.1722C105.379 16.9963 104.861 16.9084 104.314 16.9084C103.357 16.9084 102.576 17.1038 101.97 17.4945C101.364 17.8657 100.915 18.4615 100.622 19.2821C100.329 20.083 100.182 21.1282 100.182 22.4176V23.033C100.182 24.3614 100.339 25.4359 100.651 26.2564C100.964 27.0574 101.413 27.6337 101.999 27.9854C102.605 28.337 103.347 28.5128 104.226 28.5128Z" fill="white"/>
<path d="M116.304 30.4176V10.315H120.612L125.183 23.3553C125.301 23.707 125.418 24.0977 125.535 24.5275C125.672 24.9377 125.789 25.3285 125.887 25.6996C126.004 26.0708 126.092 26.3932 126.15 26.6667H126.356C126.414 26.3736 126.492 26.0415 126.59 25.6703C126.688 25.2796 126.795 24.8791 126.912 24.4689C127.03 24.0586 127.137 23.6874 127.235 23.3553L131.806 10.315H136.085V30.4176H133.301V18.6374C133.301 18.0318 133.31 17.3773 133.33 16.674C133.35 15.9512 133.369 15.2967 133.389 14.7106C133.408 14.105 133.418 13.6752 133.418 13.4213H133.183C133.125 13.6752 133.027 14.0366 132.89 14.5055C132.754 14.9548 132.607 15.4335 132.451 15.9414C132.314 16.4298 132.187 16.8694 132.07 17.2601L127.352 30.4176H124.949L120.231 17.2601C120.114 16.928 119.987 16.547 119.85 16.1172C119.733 15.6679 119.606 15.2088 119.469 14.7399C119.352 14.2711 119.235 13.8315 119.118 13.4213H118.912C118.932 13.851 118.942 14.3883 118.942 15.033C118.961 15.6581 118.971 16.293 118.971 16.9377C118.991 17.5629 119 18.1294 119 18.6374V30.4176H116.304Z" fill="white"/>
<path d="M147.761 30.7692C146.198 30.7692 144.879 30.486 143.805 29.9194C142.75 29.3333 141.939 28.4444 141.373 27.2528C140.826 26.0611 140.552 24.547 140.552 22.7106C140.552 20.8547 140.826 19.3407 141.373 18.1685C141.939 16.9768 142.75 16.0977 143.805 15.5311C144.879 14.9451 146.198 14.652 147.761 14.652C149.324 14.652 150.633 14.9451 151.688 15.5311C152.762 16.0977 153.573 16.9768 154.12 18.1685C154.667 19.3407 154.94 20.8547 154.94 22.7106C154.94 24.547 154.667 26.0611 154.12 27.2528C153.573 28.4444 152.762 29.3333 151.688 29.9194C150.633 30.486 149.324 30.7692 147.761 30.7692ZM147.761 28.6007C148.757 28.6007 149.588 28.4054 150.252 28.0147C150.916 27.6239 151.414 27.0183 151.746 26.1978C152.098 25.3578 152.274 24.3028 152.274 23.033V22.3883C152.274 21.0989 152.098 20.044 151.746 19.2234C151.414 18.4029 150.916 17.7973 150.252 17.4066C149.588 17.0159 148.757 16.8205 147.761 16.8205C146.765 16.8205 145.925 17.0159 145.241 17.4066C144.577 17.7973 144.078 18.4029 143.746 19.2234C143.414 20.044 143.248 21.0989 143.248 22.3883V23.033C143.248 24.3028 143.414 25.3578 143.746 26.1978C144.078 27.0183 144.577 27.6239 145.241 28.0147C145.925 28.4054 146.765 28.6007 147.761 28.6007Z" fill="white"/>
<path d="M162.888 30.4176L157.174 15.0037H159.87L162.683 22.7106C162.82 23.0818 162.976 23.5507 163.152 24.1172C163.327 24.6642 163.503 25.2308 163.679 25.8169C163.874 26.3834 164.031 26.8913 164.148 27.3407H164.295C164.431 26.9109 164.588 26.4127 164.763 25.8462C164.939 25.2601 165.115 24.6935 165.291 24.1465C165.486 23.58 165.652 23.1013 165.789 22.7106L168.573 15.0037H171.181L165.467 30.4176H162.888Z" fill="white"/>
<path d="M174.395 12.1026V9.23077H176.974V12.1026H174.395ZM174.395 30.4176V15.0037H176.974V30.4176H174.395Z" fill="white"/>
<path d="M187.945 30.7692C186.421 30.7692 185.132 30.486 184.077 29.9194C183.041 29.3333 182.25 28.4444 181.703 27.2528C181.176 26.0611 180.912 24.547 180.912 22.7106C180.912 20.8547 181.176 19.3407 181.703 18.1685C182.25 16.9768 183.051 16.0977 184.106 15.5311C185.161 14.9451 186.48 14.652 188.062 14.652C189.508 14.652 190.719 14.9353 191.696 15.5018C192.673 16.0488 193.405 16.8791 193.894 17.9927C194.402 19.0867 194.656 20.464 194.656 22.1245V23.3553H183.579C183.618 24.5861 183.794 25.602 184.106 26.4029C184.438 27.1844 184.927 27.7607 185.571 28.1319C186.216 28.4835 187.027 28.6593 188.004 28.6593C188.668 28.6593 189.244 28.5812 189.732 28.4249C190.24 28.2491 190.66 28.0049 190.993 27.6923C191.344 27.3797 191.608 27.0086 191.784 26.5788C191.96 26.149 192.057 25.6801 192.077 25.1722H194.597C194.577 25.9927 194.421 26.7546 194.128 27.4579C193.835 28.1416 193.405 28.7277 192.839 29.2161C192.272 29.7045 191.579 30.0855 190.758 30.359C189.938 30.6325 189 30.7692 187.945 30.7692ZM183.637 21.4213H191.989C191.989 20.5617 191.891 19.8388 191.696 19.2528C191.5 18.6667 191.217 18.188 190.846 17.8169C190.494 17.4457 190.074 17.1819 189.586 17.0256C189.117 16.8498 188.58 16.7619 187.974 16.7619C187.076 16.7619 186.314 16.928 185.689 17.2601C185.063 17.5922 184.585 18.1001 184.253 18.7839C183.921 19.4676 183.715 20.3468 183.637 21.4213Z" fill="white"/>
<path d="M204.051 30.7692C202.996 30.7692 202.068 30.6618 201.267 30.4469C200.466 30.232 199.802 29.9194 199.275 29.5092C198.747 29.0989 198.347 28.6105 198.073 28.044C197.8 27.4774 197.663 26.8327 197.663 26.1099C197.663 26.0122 197.663 25.9243 197.663 25.8462C197.663 25.7485 197.673 25.6703 197.692 25.6117H200.242C200.222 25.6899 200.212 25.7582 200.212 25.8169C200.212 25.8755 200.212 25.9341 200.212 25.9927C200.232 26.6764 200.408 27.2137 200.74 27.6044C201.092 27.9951 201.57 28.2686 202.176 28.4249C202.781 28.5812 203.455 28.6593 204.198 28.6593C204.842 28.6593 205.438 28.5812 205.985 28.4249C206.532 28.2491 206.962 27.9951 207.275 27.663C207.607 27.3114 207.773 26.8718 207.773 26.3443C207.773 25.6996 207.558 25.2112 207.128 24.8791C206.718 24.5275 206.171 24.254 205.487 24.0586C204.803 23.8633 204.09 23.6581 203.348 23.4432C202.723 23.2674 202.098 23.072 201.473 22.8571C200.847 22.6423 200.281 22.3785 199.773 22.0659C199.285 21.7534 198.884 21.3529 198.571 20.8645C198.278 20.3565 198.132 19.7216 198.132 18.9597C198.132 18.276 198.269 17.6703 198.542 17.1429C198.835 16.6154 199.245 16.1661 199.773 15.7949C200.3 15.4237 200.935 15.1502 201.678 14.9744C202.44 14.779 203.28 14.6813 204.198 14.6813C205.175 14.6813 206.024 14.7888 206.747 15.0037C207.49 15.2186 208.105 15.5214 208.593 15.9121C209.082 16.3028 209.443 16.7521 209.678 17.2601C209.912 17.7485 210.029 18.276 210.029 18.8425C210.029 18.9597 210.029 19.0769 210.029 19.1941C210.029 19.2918 210.02 19.37 210 19.4286H207.48V19.1062C207.48 18.7155 207.372 18.3443 207.158 17.9927C206.962 17.6215 206.611 17.3285 206.103 17.1136C205.614 16.8791 204.93 16.7619 204.051 16.7619C203.485 16.7619 202.996 16.8107 202.586 16.9084C202.176 16.9866 201.834 17.1233 201.56 17.3187C201.287 17.4945 201.082 17.7094 200.945 17.9634C200.808 18.1978 200.74 18.4713 200.74 18.7839C200.74 19.2918 200.906 19.6825 201.238 19.956C201.57 20.2296 202.01 20.4542 202.557 20.63C203.123 20.8059 203.729 21.0012 204.374 21.2161C205.057 21.4115 205.751 21.6166 206.454 21.8315C207.177 22.0269 207.832 22.2808 208.418 22.5934C209.023 22.906 209.502 23.3358 209.853 23.8828C210.225 24.4103 210.41 25.1136 210.41 25.9927C210.41 26.8132 210.254 27.5263 209.941 28.1319C209.629 28.7375 209.179 29.2357 208.593 29.6264C208.027 30.0171 207.353 30.3004 206.571 30.4762C205.81 30.6716 204.969 30.7692 204.051 30.7692Z" fill="white"/>
<defs>
<linearGradient id="paint0_linear_101_967" x1="40" y1="0" x2="1.96598" y2="44.8656" gradientUnits="userSpaceOnUse">
<stop stop-color="#FFEE58"/>
<stop offset="1" stop-color="#FF8F00"/>
</linearGradient>
</defs>
</svg>
