<svg width="319" height="72" viewBox="0 0 319 72" fill="none" xmlns="http://www.w3.org/2000/svg">
<path fill-rule="evenodd" clip-rule="evenodd" d="M158.065 0V10.8679H159.426V0H158.065ZM167.001 14.5062L172.443 5.09434L173.622 5.77358L168.179 15.1855L167.001 14.5062ZM145.048 5.09434L150.49 14.5062L149.312 15.1855L143.87 5.77358L145.048 5.09434ZM167.001 60.1132L172.443 69.5251L173.622 68.8459L168.179 59.434L167.001 60.1132ZM145.048 69.5251L150.49 60.1132L149.312 59.434L143.87 68.8459L145.048 69.5251ZM158.065 72V61.1321H159.426V72H158.065ZM122.69 31.2453V42.7924H124.05V31.2453H122.69ZM139.697 33.283H131.533V31.9245H139.697V33.283ZM131.533 38.0377H139.697V36.6792H131.533V38.0377ZM139.697 43.4717H131.533V42.1132H139.697V43.4717ZM0.430667 41.4053C11.7501 38.0148 39.6572 31.2453 60.7821 31.2453C81.4751 31.2453 100.356 32.9695 107.723 34.5098V38.5653C98.5673 36.7736 77.7063 34.6415 60.7821 34.6415C51.9998 34.6415 40.0373 36.5221 28.6804 38.9872C17.3169 41.4537 6.50166 44.5182 0 46.9098L0.470368 48.1845C6.89445 45.8214 17.6448 42.7727 28.9694 40.3147C40.3005 37.8552 52.1486 36 60.7821 36C77.8079 36 98.8249 38.1701 107.723 39.9502V42.1132C107.723 42.8635 108.332 43.4717 109.084 43.4717H118.608V47.5472C118.608 48.2974 119.217 48.9057 119.968 48.9057H126.771V54.3396C126.771 55.0899 127.381 55.6981 128.132 55.6981H144.459H148.541C149.292 55.6981 149.902 55.0899 149.902 54.3396V20.3774C149.902 19.6271 149.292 19.0189 148.541 19.0189H144.459H128.132C127.381 19.0189 126.771 19.6271 126.771 20.3774V25.8113H119.968C119.217 25.8113 118.608 26.4195 118.608 27.1698V31.2453H109.084C108.332 31.2453 107.723 31.8535 107.723 32.6038V33.1229C100.023 31.5677 81.2446 29.8868 60.7821 29.8868C39.4561 29.8868 11.397 36.7022 0.0397007 40.1041L0.430667 41.4053ZM128.132 54.3396H143.099V20.3774H128.132V27.1698V47.5472V54.3396ZM148.541 54.3396H144.459V20.3774H148.541V54.3396ZM126.771 27.1698H119.968V32.6038V42.1132V47.5472H126.771V27.1698ZM109.084 42.1132H118.608V32.6038H109.084V33.4193V40.2334V42.1132ZM257.389 31.2453C278.514 31.2453 306.421 38.0148 317.741 41.4053L318.132 40.1041C306.774 36.7022 278.715 29.8868 257.389 29.8868C236.296 29.8868 216.993 31.6729 209.768 33.2663V32.6038C209.768 31.8535 209.159 31.2453 208.408 31.2453H198.883V27.1698C198.883 26.4195 198.274 25.8113 197.523 25.8113H190.72V20.3774C190.72 19.6271 190.111 19.0189 189.359 19.0189H185.277L173.032 19.0189C170.026 19.0189 167.59 21.4517 167.59 24.4528V25.8113H158.065C157.314 25.8113 156.705 26.4195 156.705 27.1698V29.8868C156.705 30.6371 157.314 31.2453 158.065 31.2453H167.59V35.316V35.3208V39.3962V39.4003V40.7547H158.065C157.314 40.7547 156.705 41.3629 156.705 42.1132V44.8302C156.705 45.5805 157.314 46.1887 158.065 46.1887H167.59V50.2641C167.59 53.2652 170.026 55.6981 173.032 55.6981H185.277H189.359C190.111 55.6981 190.72 55.0899 190.72 54.3396V48.9057H197.523C198.274 48.9057 198.883 48.2974 198.883 47.5472V43.4717H208.408C209.159 43.4717 209.768 42.8635 209.768 42.1132V40.0904L209.908 40.0609C218.469 38.2614 240.009 36 257.389 36C266.023 36 277.871 37.8552 289.202 40.3147C300.527 42.7727 311.277 45.8214 317.701 48.1845L318.171 46.9098C311.67 44.5182 300.855 41.4537 289.491 38.9872C278.134 36.5221 266.172 34.6415 257.389 34.6415C240.465 34.6415 219.604 36.7736 210.449 38.5653V34.5098C217.816 32.9695 236.696 31.2453 257.389 31.2453ZM167.59 44.8302V42.1132H158.065V44.8302H167.59ZM168.95 44.8302V50.2641C168.95 52.515 170.778 54.3396 173.032 54.3396H183.917L183.917 20.3774H173.032C170.778 20.3774 168.95 22.202 168.95 24.4528V27.1698V29.8868V33.9623L175.753 33.9623C176.505 33.9623 177.114 34.5705 177.114 35.3208V39.3962C177.114 40.1465 176.505 40.7547 175.753 40.7547H168.95V42.1132V44.8302ZM158.065 27.1698H167.59V29.8868L158.065 29.8868V27.1698ZM168.95 35.3208V39.3962H175.753V35.3208H168.95ZM190.72 47.5472V27.1698H197.523V32.6038V42.1132V47.5472H190.72ZM189.359 54.3396H185.277V20.3774L189.359 20.3774V27.1642L189.359 27.1698V47.5472V47.55V54.3396ZM198.883 42.1132V32.6038H208.408V42.1132H198.883Z" fill="#F5F5F5" fill-opacity="0.6"/>
</svg>
