<svg width="24" height="24" viewBox="0 0 24 24" fill="none" xmlns="http://www.w3.org/2000/svg">
<path d="M12.0001 17.52L7.85007 20.02C7.66674 20.1367 7.47507 20.1867 7.27507 20.17C7.07507 20.1533 6.90007 20.0867 6.75007 19.97C6.60007 19.8533 6.4834 19.7077 6.40007 19.533C6.31674 19.3577 6.30007 19.1617 6.35007 18.945L7.45007 14.22L3.77507 11.045C3.6084 10.895 3.5044 10.724 3.46307 10.532C3.42107 10.3407 3.4334 10.1533 3.50007 9.97001C3.56674 9.78667 3.66674 9.63667 3.80007 9.52001C3.9334 9.40334 4.11674 9.32834 4.35007 9.29501L9.20007 8.87001L11.0751 4.42001C11.1584 4.22001 11.2877 4.07001 11.4631 3.97001C11.6377 3.87001 11.8167 3.82001 12.0001 3.82001C12.1834 3.82001 12.3627 3.87001 12.5381 3.97001C12.7127 4.07001 12.8417 4.22001 12.9251 4.42001L14.8001 8.87001L19.6501 9.29501C19.8834 9.32834 20.0667 9.40334 20.2001 9.52001C20.3334 9.63667 20.4334 9.78667 20.5001 9.97001C20.5667 10.1533 20.5794 10.3407 20.5381 10.532C20.4961 10.724 20.3917 10.895 20.2251 11.045L16.5501 14.22L17.6501 18.945C17.7001 19.1617 17.6834 19.3577 17.6001 19.533C17.5167 19.7077 17.4001 19.8533 17.2501 19.97C17.1001 20.0867 16.9251 20.1533 16.7251 20.17C16.5251 20.1867 16.3334 20.1367 16.1501 20.02L12.0001 17.52Z" fill="url(#paint0_linear_101_990)"/>
<defs>
<linearGradient id="paint0_linear_101_990" x1="3.43872" y1="3.82001" x2="21.9006" y2="20.2076" gradientUnits="userSpaceOnUse">
<stop stop-color="#FFEE58"/>
<stop offset="1" stop-color="#FF8F00"/>
</linearGradient>
</defs>
</svg>
